/* XPM */
static const char * audio_icon_xpm[] = {
"24 21 17 1",
" 	c None",
".	c #000000",
"1	c #111111",
"2	c #222222",
"3	c #333333",
"4	c #444444",
"5	c #555555",
"6	c #666666",
"7	c #777777",
"8	c #888888",
"9	c #999999",
"a	c #aaaaaa",
"b	c #bbbbbb",
"c	c #cccccc",
"d	c #dddddd",
"e	c #eeeeee",
"f	c #FFFFFF",
"                        ",
"               ffa      ",
"               fffa     ",
"               ffffa    ",
"               ffaffa   ",
"               ff  ffa  ",
"              6ff666ffa ",
"666666  66666  ff 66    ",
"66 6 66 66  66 ff666    ",
"66 6 66 66  66 ff  66   ",
"66 6 66 66666 6ff  66   ",
"66   6636633   ff666    ",
"     affffffffaff       ",
"   affa4    4afff       ",
"   ff          ff       ",
"   ff          ff       ",
"   ff          ff       ",
"   ff         ffa       ",
"   afffa4  4affa        ",
"     afffffffa          ",
"                        "
};

/*
0123456789abcdef
*   *   *   *   *
*/

