/* XPM */
static const char * audio_icon_xpm[] = {
"24 21 17 1",
" 	c None",
".	c #000000",
"1	c #111111",
"2	c #222222",
"3	c #333333",
"4	c #444444",
"5	c #555555",
"6	c #666666",
"7	c #777777",
"8	c #888888",
"9	c #999999",
"a	c #aaaaaa",
"b	c #bbbbbb",
"c	c #cccccc",
"d	c #dddddd",
"e	c #eeeeee",
"f	c #FFFFFF",
"                        ",
"               774      ",
"               7774     ",
"               77774    ",
"               774774   ",
"               77  774  ",
"              fffffff74 ",
"ffffff  fffff  77 ff    ",
"ff f ff ff  ff 77fff    ",
"ff f ff ff  ff 77  ff   ",
"ff f ff fffff ff7  ff   ",
"ff   ff3ff33   ffff6    ",
"     477ff7777477       ",
"   47742    24777       ",
"   77          77       ",
"   77          77       ",
"   77          77       ",
"   77         774       ",
"   477742  24774        ",
"     477777774          ",
"                        "
};

/*
0123456789abcdef
*   *   *   *   *
*/

