/* XPM */
static const char * video_icon_xpm[] = {
"32 20 17 1",
" 	c None",
".	c #000000",
"1	c #111111",
"2	c #222222",
"3	c #333333",
"4	c #444444",
"5	c #555555",
"6	c #666666",
"7	c #777777",
"8	c #888888",
"9	c #999999",
"a	c #aaaaaa",
"b	c #bbbbbb",
"c	c #cccccc",
"d	c #dddddd",
"e	c #eeeeee",
"f	c #FFFFFF",
"b....ffffffffffffffffffffff....b",
"ffffffb999999999999999999bffffff",
"f....f99999999999999999999f....f",
"f....f99999999999999999999f....f",
"b....f99999999999999999999f....f",
"ffffff99999999999999999999fffffb",
"b....f99999999999999999999f....b",
"b....f99999999999999999999f....b",
"b....fb999999999999999999bf....f",
"ffffffffffffffffffffffffffffffff",
"f....fb999999999999999999bf....f",
"f....fb999999999999999999bf....f",
"f....f99999999999999999999f....f",
"ffffff99999999999999999999ffffff",
"f....f99999999999999999999f....b",
"f....f99999999999999999999f....b",
"b....f99999999999999999999f....f",
"bfffffb999999999999999999bffffff",
"f....ffffffffffffffffffffff....f",
"b....fb999999999999999999bf....b"
};

/*
0123456789abcdef
*   *   *   *   *
*/

