/* XPM */
static const char * One_16x16_xpm[] = {
"16 16 2 1",
" 	c #      ",
".	c #FFFFFF",
"                ",
"                ",
"      ...       ",
"     ....       ",
"    .....       ",
"      ...       ",
"      ...       ",
"      ...       ",
"      ...       ",
"      ...       ",
"      ...       ",
"      ...       ",
"      ...       ",    
" .............  ",
"                ",
"                "};

static const char * Two_16x16_xpm[] = {
"16 16 2 1",
" 	c #      ",
".	c #FFFFFF",
"                ",
"                ",
"  ............  ",
" ...        ... ",
"            ... ",
"            ... ",
"          ....  ",
"       .....    ",
"    .....       ",
"  ....          ",
" ...            ",
" ...            ",
" ...            ",
" .............. ",
"                ",
"                "};

static const char * Three_16x16_xpm[] = {
"16 16 2 1",
" 	c #      ",
".	c #FFFFFF",
"                ",
"                ",
" .............. ",
"            ... ",
"           ...  ",
"          ...   ",
"         ...    ",
"       ......   ",
"            ... ",
"            ... ",
"            ... ",
"            ... ",
" ...        ... ",
"  ............  ",
"                ",
"                "};

static const char * Four_16x16_xpm[] = {
"16 16 2 1",
" 	c #      ",
".	c #FFFFFF",
"                ",
"                ",
"         ....   ",
"        .....   ",
"       ......   ",
"      .......   ",
"     ...  ...   ",
"    ...   ...   ",
"   ...    ...   ",
"  ...     ...   ",
" ...      ...   ",
" .............. ",
"          ...   ",
"          ...   ",
"                ",
"                "};

static const char * Five_16x16_xpm[] = {
"16 16 2 1",
" 	c #      ",
".	c #FFFFFF",
"                ",
"                ",
" .............. ",
" ...            ",
" ...            ",
" ...            ",
" ...            ",
" .............  ",
"            ... ",
"            ... ",
"            ... ",
"            ... ",
" ...        ... ",
"  ............  ",
"                ",
"                "};

static const char * Six_16x16_xpm[] = {
"16 16 2 1",
" 	c #      ",
".	c #FFFFFF",
"                ",
"                ",
"     .........  ",
"   ....         ",
"  ....          ",
" ....           ",
" ...            ",
" .............  ",
" ...        ... ",
" ...        ... ",
" ...        ... ",
" ...        ... ",
" ...        ... ",
"  ............  ",
"                ",
"                "};

static const char * Seven_16x16_xpm[] = {
"16 16 2 1",
" 	c #      ",
".	c #FFFFFF",
"                ",
"                ",
" .............. ",
"            ... ",
"           .... ",
"          ....  ",
"         ....   ",
"        ....    ",
"       ...      ",
"       ...      ",
"       ...      ",
"       ...      ",
"       ...      ",
"       ...      ",
"                ",
"                "};

static const char * Eight_16x16_xpm[] = {
"16 16 2 1",
" 	c #      ",
".	c #FFFFFF",
"                ",
"                ",
"  ............  ",
" ...        ... ",
" ...        ... ",
" ...        ... ",
" ...        ... ",
"  ............  ",
" ...        ... ",
" ...        ... ",
" ...        ... ",
" ...        ... ",
" ...        ... ",
"  ............  ",
"                ",
"                "};

static const char * Nine_16x16_xpm[] = {
"16 16 2 1",
" 	c #      ",
".	c #FFFFFF",
"                ",
"                ",
"  ............  ",
" ...        ... ",
" ...        ... ",
" ...        ... ",
" ...        ... ",
" ...        ... ",
"  ............. ",
"            ... ",
"           .... ",
"          ....  ",
"         ....   ",
"  .........     ",
"                ",
"                "};

static const char * Zero_16x16_xpm[] = {
"16 16 2 1",
" 	c #      ",
".	c #FFFFFF",
"                ",
"                ",
"  ............  ",
" ...        ... ",
" ...        ... ",
" ...        ... ",
" ...        ... ",
" ...   ..   ... ",
" ...   ..   ... ",
" ...        ... ",
" ...        ... ",
" ...        ... ",
" ...        ... ",
"  ............  ",
"                ",
"                "};

