/* XPM */
static const char * Point_16x16_xpm[] = {
"16 16 2 1",
" 	c #      ",
".	c #FFFFFF",
"                ",
"                ",
"                ",
"                ",
"                ",
"                ",
"                ",
"                ",
"                ",
"                ",
"                ",
"      ...       ",
"      ...       ",    
"      ...       ",
"                ",
"                "};

static const char * Comma_16x16_xpm[] = {
"16 16 2 1",
" 	c #      ",
".	c #FFFFFF",
"                ",
"                ",
"                ",
"                ",
"                ",
"                ",
"                ",
"                ",
"                ",
"                ",
"                ",
"      ...       ",
"      ...       ",
"      ...       ",
"     ...        ",
"    ...         "};

static const char * DoublePoint_16x16_xpm[] = {
"16 16 2 1",
" 	c #      ",
".	c #FFFFFF",
"                ",
"                ",
"                ",
"                ",
"                ",
"      ...       ",
"      ...       ",
"      ...       ",
"                ",
"                ",
"                ",
"      ...       ",
"      ...       ",    
"      ...       ",
"                ",
"                "};

static const char * Semicolon_16x16_xpm[] = {
"16 16 2 1",
" 	c #      ",
".	c #FFFFFF",
"                ",
"                ",
"                ",
"                ",
"                ",
"      ...       ",
"      ...       ",
"      ...       ",
"                ",
"                ",
"                ",
"      ...       ",
"      ...       ",    
"      ...       ",
"     ...        ",
"    ...         "};

static const char * Underscore_16x16_xpm[] = {
"16 16 2 1",
" 	c #      ",
".	c #FFFFFF",
"                ",
"                ",
"                ",
"                ",
"                ",
"                ",
"                ",
"                ",
"                ",
"                ",
"                ",
"                ",
"                ",
"                ",
"................",
"                "};

