/* XPM */
static const char * S_16x16_xpm[] = {
"16 16 2 1",
" 	c #      ",
".	c #FFFFFF",
"                ",
"                ",
"  ............  ",
" ...        ... ",
" ...            ",
" ...            ",
" ...            ",
"  ............  ",
"            ... ",
"            ... ",
"            ... ",
"            ... ",
" ...        ... ",
"  ............  ",
"                ",
"                "};
