/* XPM */
static char * test_xpm[] = {
"8 8 8 1",
" 	c None",
".	c #FFFFFF",
"+	c #C7C7C7",
"@	c #555555",
"#	c #393939",
"$	c #727272",
"%	c #8E8E8E",
"&	c #AAAAAA",
"........",
"........",
"........",
"....+@@#",
"....+..$",
"....+@@$",
"....@..%",
"....&##$"};
