/* XPM */
static const char * W_16x16_xpm[] = {
"16 16 2 1",
" 	c #      ",
".	c #FFFFFF",
"                ",
"                ",
" ...        ... ",
" ...        ... ",
" ...        ... ",
" ...   ..   ... ",
" ...   ..   ... ",
" ...  ....  ... ",
" ... ...... ... ",
" .............. ",
" ......  ...... ",
" .....    ..... ",
" ....      .... ",
" ...        ... ",
"                ",
"                "};
